<svg width="28" height="28" viewBox="0 0 28 28" fill="none" xmlns="http://www.w3.org/2000/svg">
<g clip-path="url(#clip0_599_3901)">
<path d="M0.02975 14.5845C0.3395 22.0316 6.47762 28 14 28C21.5224 28 27.6605 22.0316 27.9702 14.5845C27.9886 14.5376 27.9986 14.4878 28 14.4375C28 14.406 27.9886 14.3789 27.9825 14.35C27.9851 14.2327 28 14.1181 28 14C28 6.28075 21.7192 0 14 0C6.28075 0 0 6.28075 0 14C0 14.1181 0.014875 14.2327 0.0175 14.35C0.011375 14.3789 0 14.406 0 14.4375C0 14.49 0.013125 14.5381 0.02975 14.5845ZM21.8059 19.8993C20.6168 19.4062 19.3812 19.0336 18.1178 18.7871C18.256 17.5158 18.3374 16.1954 18.3628 14.8759H22.7202C22.6406 16.6731 22.3212 18.3698 21.8059 19.8993ZM23.5944 14.875H27.0804C26.9255 17.2572 26.1194 19.5511 24.7502 21.5066C24.0701 21.0272 23.351 20.6058 22.6004 20.2466C23.1648 18.6112 23.5121 16.7965 23.5944 14.875ZM10.8404 19.5002C11.8855 19.3353 12.9419 19.2517 14 19.25C15.071 19.25 16.1289 19.3392 17.1588 19.5002C16.5515 24.1684 15.225 27.125 14 27.125C12.775 27.125 11.4485 24.1684 10.8404 19.5002ZM12.1695 26.831C9.76237 26.0592 7.72625 23.7939 6.49775 20.72C7.62327 20.2501 8.79279 19.8933 9.989 19.6551C10.3906 22.7141 11.1248 25.3794 12.1695 26.831ZM10.7397 9.37037C11.8184 9.53848 12.9083 9.6236 14 9.625C15.0917 9.6236 16.1816 9.53848 17.2603 9.37037C17.4107 10.7879 17.5 12.3349 17.5 14H10.5C10.5 12.3349 10.5893 10.7879 10.7397 9.37037ZM17.4869 14.875C17.466 16.1293 17.3901 17.382 17.2594 18.6296C16.181 18.4616 15.0914 18.3764 14 18.375C12.9083 18.3764 11.8184 18.4615 10.7397 18.6296C10.609 17.382 10.5331 16.1293 10.5122 14.875H17.4869ZM18.0119 19.6551C19.2404 19.9019 20.412 20.2606 21.5031 20.72C20.2746 23.7939 18.2385 26.0592 15.8314 26.831C16.8752 25.3794 17.6094 22.7141 18.0119 19.6551ZM18.375 14C18.375 12.3935 18.2857 10.766 18.1178 9.21375C19.4128 8.95825 20.6517 8.58375 21.8059 8.10162C22.4044 9.877 22.75 11.8772 22.75 14H18.375ZM18.0119 8.34487C17.6094 5.28587 16.8761 2.61975 15.8305 1.169C18.2376 1.94075 20.2738 4.20612 21.5022 7.28C20.3774 7.751 19.2081 8.10775 18.0119 8.34487ZM17.1596 8.49975C16.1289 8.66075 15.071 8.75 14 8.75C12.929 8.75 11.8711 8.66075 10.8404 8.49975C11.4485 3.83162 12.775 0.875 14 0.875C15.225 0.875 16.5515 3.83162 17.1596 8.49975ZM9.98812 8.34487C8.79192 8.10667 7.6224 7.74995 6.49688 7.28C7.72538 4.20612 9.7615 1.94075 12.1686 1.169C11.1248 2.62063 10.3906 5.28587 9.98812 8.34487ZM9.88225 9.21375C9.71082 10.8034 9.62494 12.4011 9.625 14H5.25C5.25 11.8772 5.59562 9.877 6.19413 8.10075C7.34825 8.58375 8.58725 8.95737 9.88225 9.21375ZM9.63725 14.875C9.66263 16.1945 9.744 17.5149 9.88225 18.7871C8.58725 19.0426 7.34825 19.4171 6.19413 19.8993C5.67875 18.3698 5.35938 16.6731 5.27975 14.875H9.63725ZM5.39875 20.2466C4.64845 20.6058 3.92959 21.0273 3.24975 21.5066C1.88055 19.5511 1.07455 17.2572 0.919625 14.875H4.40562C4.48787 16.7965 4.83525 18.6112 5.39875 20.2466ZM3.77388 22.2075C4.386 21.7758 5.03178 21.394 5.705 21.0656C6.5835 23.24 7.84788 25.0451 9.36775 26.2657C7.17509 25.4351 5.24396 24.0341 3.77388 22.2075ZM18.6322 26.2649C20.153 25.0451 21.4165 23.2391 22.295 21.0647C22.9862 21.4007 23.6268 21.7875 24.2261 22.2066C22.7566 24.0339 20.8253 25.435 18.6322 26.2649ZM23.625 14C23.625 11.7539 23.2505 9.63638 22.6012 7.75338C23.3713 7.38413 24.087 6.95975 24.7511 6.49337C26.2971 8.69117 27.1262 11.3129 27.125 14H23.625ZM24.227 5.7925C23.6276 6.21163 22.9871 6.59838 22.2959 6.93438C21.4174 4.76 20.153 2.954 18.6331 1.73425C20.8256 2.56525 22.7566 3.96618 24.227 5.7925ZM9.36775 1.73513C7.847 2.95487 6.5835 4.76088 5.705 6.93525C5.03175 6.60662 4.38597 6.22447 3.77388 5.7925C5.24378 3.96588 7.17498 2.56513 9.36775 1.73513ZM3.24975 6.49337C3.92959 6.97272 4.64845 7.3942 5.39875 7.75338C4.71515 9.76483 4.36922 11.8756 4.375 14H0.875C0.875 11.2087 1.75787 8.62313 3.24975 6.49337Z" fill="#2B439B" style="fill:#2B439B;fill:color(display-p3 0.1686 0.2627 0.6078);fill-opacity:1;"/>
</g>
<defs>
<clipPath id="clip0_599_3901">
<rect width="28" height="28" fill="white" style="fill:white;fill-opacity:1;"/>
</clipPath>
</defs>
</svg>
