<svg width="40" height="40" viewBox="0 0 40 40" fill="none" xmlns="http://www.w3.org/2000/svg">
<rect x="0.5" y="0.5" width="39" height="39" stroke="white" style="stroke:white;stroke-opacity:1;"/>
<path d="M23.3359 16.6665C24.662 16.6665 25.9338 17.1933 26.8715 18.131C27.8092 19.0687 28.3359 20.3404 28.3359 21.6665V27.4998H25.0026V21.6665C25.0026 21.2245 24.827 20.8006 24.5144 20.488C24.2019 20.1754 23.778 19.9998 23.3359 19.9998C22.8939 19.9998 22.47 20.1754 22.1574 20.488C21.8449 20.8006 21.6693 21.2245 21.6693 21.6665V27.4998H18.3359V21.6665C18.3359 20.3404 18.8627 19.0687 19.8004 18.131C20.7381 17.1933 22.0099 16.6665 23.3359 16.6665Z" stroke="white" style="stroke:white;stroke-opacity:1;" stroke-width="1.66667" stroke-linecap="round" stroke-linejoin="round"/>
<path d="M14.9974 17.5H11.6641V27.5H14.9974V17.5Z" stroke="white" style="stroke:white;stroke-opacity:1;" stroke-width="1.66667" stroke-linecap="round" stroke-linejoin="round"/>
<path d="M13.3307 14.9998C14.2512 14.9998 14.9974 14.2536 14.9974 13.3332C14.9974 12.4127 14.2512 11.6665 13.3307 11.6665C12.4103 11.6665 11.6641 12.4127 11.6641 13.3332C11.6641 14.2536 12.4103 14.9998 13.3307 14.9998Z" stroke="white" style="stroke:white;stroke-opacity:1;" stroke-width="1.66667" stroke-linecap="round" stroke-linejoin="round"/>
</svg>
