<svg width="20" height="20" viewBox="0 0 20 20" fill="none" xmlns="http://www.w3.org/2000/svg">
<path d="M16.6654 8.33317C16.6654 12.494 12.0495 16.8273 10.4995 18.1657C10.3551 18.2742 10.1794 18.333 9.9987 18.333C9.81803 18.333 9.64226 18.2742 9.49786 18.1657C7.94786 16.8273 3.33203 12.494 3.33203 8.33317C3.33203 6.56506 4.03441 4.86937 5.28465 3.61913C6.5349 2.36888 8.23059 1.6665 9.9987 1.6665C11.7668 1.6665 13.4625 2.36888 14.7127 3.61913C15.963 4.86937 16.6654 6.56506 16.6654 8.33317Z" stroke="white" style="stroke:white;stroke-opacity:1;" stroke-width="1.66667" stroke-linecap="round" stroke-linejoin="round"/>
<path d="M10 10.8335C11.3807 10.8335 12.5 9.71421 12.5 8.3335C12.5 6.95278 11.3807 5.8335 10 5.8335C8.61929 5.8335 7.5 6.95278 7.5 8.3335C7.5 9.71421 8.61929 10.8335 10 10.8335Z" stroke="white" style="stroke:white;stroke-opacity:1;" stroke-width="1.66667" stroke-linecap="round" stroke-linejoin="round"/>
</svg>
