<svg width="28" height="28" viewBox="0 0 28 28" fill="none" xmlns="http://www.w3.org/2000/svg">
<path d="M9.33333 8.89583V9.47917M3.5 10.9667C3.5 8.35333 3.5 7.04667 4.00867 6.048C4.45607 5.16995 5.16995 4.45607 6.048 4.00867C7.04667 3.5 8.35333 3.5 10.9667 3.5H17.0333C19.6467 3.5 20.9533 3.5 21.952 4.00867C22.83 4.45607 23.5439 5.16995 23.9913 6.048C24.5 7.04667 24.5 8.35333 24.5 10.9667V17.0333C24.5 19.6467 24.5 20.9533 23.9913 21.952C23.5439 22.83 22.83 23.5439 21.952 23.9913C20.9533 24.5 19.6467 24.5 17.0333 24.5H10.9667C8.35333 24.5 7.04667 24.5 6.048 23.9913C5.16995 23.5439 4.45607 22.83 4.00867 21.952C3.5 20.9533 3.5 19.6467 3.5 17.0333V10.9667Z" stroke="#2B439B" style="stroke:#2B439B;stroke:color(display-p3 0.1686 0.2627 0.6078);stroke-opacity:1;" stroke-width="1.75" stroke-linecap="round" stroke-linejoin="round"/>
<path d="M9.33203 19.1045V12.542M13.9987 19.1045V15.7503M13.9987 15.7503V12.542M13.9987 15.7503C13.9987 14.2477 15.4244 13.417 16.7987 13.417C18.6654 13.417 18.6654 15.0212 18.6654 16.7712V19.1045" stroke="#2B439B" style="stroke:#2B439B;stroke:color(display-p3 0.1686 0.2627 0.6078);stroke-opacity:1;" stroke-width="1.75" stroke-linecap="round" stroke-linejoin="round"/>
</svg>
