<svg width="28" height="28" viewBox="0 0 28 28" fill="none" xmlns="http://www.w3.org/2000/svg">
<path d="M19.8333 7.58333H20.4167M3.5 10.9667C3.5 8.35333 3.5 7.04667 4.00867 6.048C4.45607 5.16995 5.16995 4.45607 6.048 4.00867C7.04667 3.5 8.35333 3.5 10.9667 3.5H17.0333C19.6467 3.5 20.9533 3.5 21.952 4.00867C22.83 4.45607 23.5439 5.16995 23.9913 6.048C24.5 7.04667 24.5 8.35333 24.5 10.9667V17.0333C24.5 19.6467 24.5 20.9533 23.9913 21.952C23.5439 22.83 22.83 23.5439 21.952 23.9913C20.9533 24.5 19.6467 24.5 17.0333 24.5H10.9667C8.35333 24.5 7.04667 24.5 6.048 23.9913C5.16995 23.5439 4.45607 22.83 4.00867 21.952C3.5 20.9533 3.5 19.6467 3.5 17.0333V10.9667Z" stroke="#2B439B" style="stroke:#2B439B;stroke:color(display-p3 0.1686 0.2627 0.6078);stroke-opacity:1;" stroke-width="1.75" stroke-linecap="round" stroke-linejoin="round"/>
<path d="M18.0373 13.4012C18.1159 13.9317 18.0893 14.4725 17.9589 14.9927C17.8285 15.5128 17.5969 16.0022 17.2774 16.4329C16.9578 16.8636 16.5566 17.2271 16.0966 17.5028C15.6366 17.7784 15.1267 17.9607 14.5963 18.0393C14.0658 18.1179 13.525 18.0912 13.0048 17.9608C12.4846 17.8304 11.9952 17.5989 11.5645 17.2793C10.6947 16.634 10.1169 15.6696 9.95818 14.5982C9.79944 13.5268 10.0728 12.4363 10.7181 11.5665C11.3635 10.6967 12.3279 10.1189 13.3993 9.96013C14.4706 9.8014 15.5612 10.0748 16.431 10.7201C17.3008 11.3654 17.8786 12.3298 18.0373 13.4012Z" stroke="#2B439B" style="stroke:#2B439B;stroke:color(display-p3 0.1686 0.2627 0.6078);stroke-opacity:1;" stroke-width="1.75" stroke-linecap="round" stroke-linejoin="round"/>
</svg>
