<svg width="20" height="22" viewBox="0 0 20 22" fill="none" xmlns="http://www.w3.org/2000/svg">
<mask id="path-1-inside-1_661_7328" fill="white">
<path d="M0 2H20V22H0V2Z"/>
</mask>
<path d="M0 2H20V22H0V2Z" fill="#BD3116" fill-opacity="0.06" style="fill:#BD3116;fill:color(display-p3 0.7412 0.1922 0.0863);fill-opacity:0.06;"/>
<path d="M0 2V1H-1V2H0ZM20 2H21V1H20V2ZM20 22V23H21V22H20ZM0 22H-1V23H0V22ZM0 2V3H20V2V1H0V2ZM20 2H19V22H20H21V2H20ZM20 22V21H0V22V23H20V22ZM0 22H1V2H0H-1V22H0Z" fill="#BD3116" fill-opacity="0.35" style="fill:#BD3116;fill:color(display-p3 0.7412 0.1922 0.0863);fill-opacity:0.35;" mask="url(#path-1-inside-1_661_7328)"/>
<g clip-path="url(#clip0_661_7328)">
<path d="M9.99984 16.5834C12.5311 16.5834 14.5832 14.5314 14.5832 12.0001C14.5832 9.46878 12.5311 7.41675 9.99984 7.41675C7.46853 7.41675 5.4165 9.46878 5.4165 12.0001C5.4165 14.5314 7.46853 16.5834 9.99984 16.5834Z" stroke="#BD3116" style="stroke:#BD3116;stroke:color(display-p3 0.7412 0.1922 0.0863);stroke-opacity:1;" stroke-width="0.916667" stroke-linecap="round" stroke-linejoin="round"/>
<path d="M8.625 11.9999L9.54167 12.9166L11.375 11.0833" stroke="#BD3116" style="stroke:#BD3116;stroke:color(display-p3 0.7412 0.1922 0.0863);stroke-opacity:1;" stroke-width="0.916667" stroke-linecap="round" stroke-linejoin="round"/>
</g>
<defs>
<clipPath id="clip0_661_7328">
<rect width="11" height="11" fill="white" style="fill:white;fill-opacity:1;" transform="translate(4.5 6.5)"/>
</clipPath>
</defs>
</svg>
