<svg width="25" height="19" viewBox="0 0 25 19" fill="none" xmlns="http://www.w3.org/2000/svg">
<path d="M23.3333 0H1.55556C1.143 0 0.747335 0.163888 0.455612 0.455612C0.163888 0.747335 0 1.143 0 1.55556V17.1111C0 17.5237 0.163888 17.9193 0.455612 18.2111C0.747335 18.5028 1.143 18.6667 1.55556 18.6667H23.3333C23.7459 18.6667 24.1416 18.5028 24.4333 18.2111C24.725 17.9193 24.8889 17.5237 24.8889 17.1111V1.55556C24.8889 1.143 24.725 0.747335 24.4333 0.455612C24.1416 0.163888 23.7459 0 23.3333 0ZM22.1356 17.1111H2.84667L8.29111 11.48L7.17111 10.3989L1.55556 16.2089V2.73778L11.2233 12.3589C11.5148 12.6486 11.909 12.8112 12.32 12.8112C12.731 12.8112 13.1252 12.6486 13.4167 12.3589L23.3333 2.49667V16.1078L17.6089 10.3833L16.5122 11.48L22.1356 17.1111ZM2.57444 1.55556H22.0733L12.32 11.2544L2.57444 1.55556Z" fill="#2B439B" style="fill:#2B439B;fill:color(display-p3 0.1686 0.2627 0.6078);fill-opacity:1;"/>
</svg>
